<svg xmlns="http://www.w3.org/2000/svg" xmlns:xlink="http://www.w3.org/1999/xlink" width="500" zoomAndPan="magnify" viewBox="0 0 375 374.999991" height="500" preserveAspectRatio="xMidYMid meet" version="1.0"><defs><clipPath id="c64e317526"><path d="M 7.007812 6.285156 L 368.507812 6.285156 L 368.507812 367.785156 L 7.007812 367.785156 Z M 7.007812 6.285156 " clip-rule="nonzero"/></clipPath></defs><g clip-path="url(#c64e317526)"><path fill="#000000" d="M 187.757812 6.285156 C 184.800781 6.285156 181.84375 6.359375 178.890625 6.503906 C 175.933594 6.648438 172.984375 6.867188 170.042969 7.15625 C 167.097656 7.445312 164.164062 7.808594 161.238281 8.242188 C 158.3125 8.675781 155.398438 9.183594 152.496094 9.757812 C 149.59375 10.335938 146.710938 10.984375 143.839844 11.703125 C 140.96875 12.421875 138.121094 13.210938 135.289062 14.070312 C 132.457031 14.929688 129.652344 15.855469 126.867188 16.851562 C 124.082031 17.847656 121.320312 18.914062 118.589844 20.042969 C 115.855469 21.175781 113.152344 22.375 110.476562 23.640625 C 107.804688 24.90625 105.164062 26.234375 102.554688 27.628906 C 99.945312 29.023438 97.371094 30.480469 94.835938 32 C 92.296875 33.523438 89.800781 35.105469 87.339844 36.746094 C 84.878906 38.390625 82.460938 40.09375 80.085938 41.855469 C 77.710938 43.617188 75.378906 45.4375 73.09375 47.316406 C 70.804688 49.191406 68.566406 51.121094 66.375 53.109375 C 64.183594 55.097656 62.039062 57.136719 59.949219 59.226562 C 57.855469 61.316406 55.816406 63.460938 53.832031 65.652344 C 51.84375 67.84375 49.914062 70.082031 48.035156 72.371094 C 46.160156 74.65625 44.339844 76.988281 42.578125 79.363281 C 40.816406 81.738281 39.113281 84.15625 37.46875 86.617188 C 35.828125 89.078125 34.246094 91.574219 32.722656 94.113281 C 31.203125 96.648438 29.746094 99.222656 28.351562 101.832031 C 26.957031 104.441406 25.628906 107.082031 24.363281 109.753906 C 23.097656 112.429688 21.898438 115.132812 20.765625 117.867188 C 19.636719 120.597656 18.570312 123.359375 17.574219 126.144531 C 16.578125 128.929688 15.652344 131.738281 14.792969 134.566406 C 13.933594 137.398438 13.144531 140.246094 12.425781 143.117188 C 11.707031 145.988281 11.058594 148.871094 10.480469 151.773438 C 9.90625 154.675781 9.398438 157.589844 8.964844 160.515625 C 8.53125 163.441406 8.167969 166.375 7.878906 169.320312 C 7.589844 172.261719 7.371094 175.210938 7.226562 178.167969 C 7.082031 181.121094 7.007812 184.078125 7.007812 187.035156 C 7.007812 189.996094 7.082031 192.949219 7.226562 195.90625 C 7.371094 198.859375 7.589844 201.808594 7.878906 204.753906 C 8.167969 207.695312 8.53125 210.632812 8.964844 213.558594 C 9.398438 216.484375 9.90625 219.398438 10.480469 222.296875 C 11.058594 225.199219 11.707031 228.085938 12.425781 230.953125 C 13.144531 233.824219 13.933594 236.675781 14.792969 239.503906 C 15.652344 242.335938 16.578125 245.144531 17.574219 247.929688 C 18.570312 250.714844 19.636719 253.472656 20.765625 256.207031 C 21.898438 258.9375 23.097656 261.644531 24.363281 264.316406 C 25.628906 266.992188 26.957031 269.632812 28.351562 272.242188 C 29.746094 274.851562 31.203125 277.421875 32.722656 279.960938 C 34.246094 282.496094 35.828125 284.996094 37.46875 287.457031 C 39.113281 289.914062 40.816406 292.332031 42.578125 294.707031 C 44.339844 297.085938 46.160156 299.417969 48.035156 301.703125 C 49.914062 303.988281 51.84375 306.230469 53.832031 308.421875 C 55.816406 310.613281 57.855469 312.753906 59.949219 314.84375 C 62.039062 316.9375 64.183594 318.976562 66.375 320.964844 C 68.566406 322.949219 70.804688 324.882812 73.09375 326.757812 C 75.378906 328.632812 77.710938 330.453125 80.085938 332.214844 C 82.460938 333.976562 84.878906 335.679688 87.339844 337.324219 C 89.800781 338.96875 92.296875 340.550781 94.835938 342.070312 C 97.371094 343.589844 99.945312 345.050781 102.554688 346.441406 C 105.164062 347.835938 107.804688 349.167969 110.476562 350.433594 C 113.152344 351.695312 115.855469 352.894531 118.589844 354.027344 C 121.320312 355.160156 124.082031 356.222656 126.867188 357.21875 C 129.652344 358.214844 132.457031 359.144531 135.289062 360.003906 C 138.121094 360.863281 140.96875 361.652344 143.839844 362.371094 C 146.710938 363.089844 149.59375 363.734375 152.496094 364.3125 C 155.398438 364.890625 158.3125 365.394531 161.238281 365.828125 C 164.164062 366.265625 167.097656 366.625 170.042969 366.914062 C 172.984375 367.207031 175.933594 367.421875 178.890625 367.570312 C 181.84375 367.714844 184.800781 367.785156 187.757812 367.785156 C 190.714844 367.785156 193.671875 367.714844 196.628906 367.570312 C 199.582031 367.421875 202.53125 367.207031 205.476562 366.914062 C 208.417969 366.625 211.355469 366.265625 214.28125 365.828125 C 217.207031 365.394531 220.121094 364.890625 223.019531 364.3125 C 225.921875 363.734375 228.808594 363.089844 231.675781 362.371094 C 234.546875 361.652344 237.398438 360.863281 240.226562 360.003906 C 243.058594 359.144531 245.867188 358.214844 248.652344 357.21875 C 251.4375 356.222656 254.195312 355.160156 256.929688 354.027344 C 259.660156 352.894531 262.363281 351.695312 265.039062 350.433594 C 267.714844 349.167969 270.355469 347.835938 272.964844 346.441406 C 275.574219 345.050781 278.144531 343.589844 280.683594 342.070312 C 283.21875 340.550781 285.71875 338.96875 288.179688 337.324219 C 290.636719 335.679688 293.054688 333.976562 295.429688 332.214844 C 297.808594 330.453125 300.136719 328.632812 302.425781 326.757812 C 304.710938 324.882812 306.949219 322.949219 309.144531 320.964844 C 311.335938 318.976562 313.476562 316.9375 315.566406 314.84375 C 317.660156 312.753906 319.699219 310.613281 321.683594 308.421875 C 323.671875 306.230469 325.605469 303.988281 327.480469 301.703125 C 329.355469 299.417969 331.175781 297.085938 332.9375 294.707031 C 334.699219 292.332031 336.402344 289.914062 338.046875 287.457031 C 339.691406 284.996094 341.273438 282.496094 342.792969 279.960938 C 344.3125 277.421875 345.769531 274.851562 347.164062 272.242188 C 348.558594 269.632812 349.890625 266.992188 351.15625 264.316406 C 352.417969 261.640625 353.617188 258.9375 354.75 256.207031 C 355.882812 253.472656 356.945312 250.714844 357.941406 247.929688 C 358.9375 245.144531 359.867188 242.335938 360.726562 239.503906 C 361.585938 236.675781 362.371094 233.824219 363.089844 230.953125 C 363.808594 228.085938 364.457031 225.199219 365.035156 222.296875 C 365.613281 219.398438 366.117188 216.484375 366.550781 213.558594 C 366.984375 210.632812 367.347656 207.695312 367.636719 204.753906 C 367.929688 201.808594 368.144531 198.859375 368.289062 195.90625 C 368.4375 192.949219 368.507812 189.996094 368.507812 187.035156 C 368.507812 184.078125 368.433594 181.121094 368.289062 178.167969 C 368.144531 175.214844 367.925781 172.265625 367.636719 169.320312 C 367.347656 166.375 366.984375 163.441406 366.550781 160.515625 C 366.113281 157.589844 365.609375 154.675781 365.03125 151.773438 C 364.453125 148.875 363.804688 145.988281 363.085938 143.121094 C 362.367188 140.25 361.578125 137.398438 360.71875 134.570312 C 359.863281 131.738281 358.933594 128.929688 357.9375 126.144531 C 356.941406 123.359375 355.875 120.601562 354.742188 117.871094 C 353.613281 115.136719 352.414062 112.433594 351.148438 109.757812 C 349.882812 107.085938 348.554688 104.445312 347.160156 101.835938 C 345.765625 99.226562 344.308594 96.652344 342.785156 94.117188 C 341.265625 91.578125 339.683594 89.082031 338.039062 86.621094 C 336.394531 84.164062 334.695312 81.746094 332.929688 79.371094 C 331.167969 76.992188 329.351562 74.664062 327.472656 72.375 C 325.597656 70.089844 323.664062 67.851562 321.679688 65.660156 C 319.691406 63.464844 317.652344 61.324219 315.5625 59.234375 C 313.46875 57.140625 311.328125 55.101562 309.136719 53.117188 C 306.945312 51.128906 304.707031 49.199219 302.417969 47.320312 C 300.132812 45.445312 297.800781 43.625 295.425781 41.863281 C 293.050781 40.101562 290.632812 38.398438 288.171875 36.753906 C 285.714844 35.113281 283.214844 33.53125 280.679688 32.007812 C 278.140625 30.488281 275.566406 29.03125 272.960938 27.636719 C 270.351562 26.242188 267.710938 24.910156 265.035156 23.644531 C 262.359375 22.382812 259.65625 21.183594 256.925781 20.050781 C 254.191406 18.917969 251.433594 17.855469 248.648438 16.859375 C 245.863281 15.859375 243.054688 14.933594 240.226562 14.074219 C 237.394531 13.214844 234.542969 12.425781 231.675781 11.707031 C 228.804688 10.988281 225.921875 10.339844 223.019531 9.761719 C 220.117188 9.1875 217.203125 8.679688 214.277344 8.246094 C 211.351562 7.8125 208.417969 7.449219 205.472656 7.160156 C 202.53125 6.867188 199.582031 6.652344 196.628906 6.503906 C 193.671875 6.359375 190.714844 6.285156 187.757812 6.285156 Z M 276.949219 210.816406 L 156.015625 210.816406 L 178.324219 233.183594 C 179.433594 234.28125 180.421875 235.476562 181.292969 236.769531 C 182.164062 238.0625 182.898438 239.429688 183.492188 240.871094 C 184.089844 242.3125 184.539062 243.796875 184.835938 245.324219 C 185.136719 246.855469 185.28125 248.402344 185.273438 249.960938 C 185.261719 251.125 185.167969 252.28125 184.988281 253.429688 C 184.808594 254.578125 184.542969 255.707031 184.199219 256.820312 C 183.855469 257.929688 183.429688 259.011719 182.925781 260.058594 C 182.421875 261.109375 181.84375 262.117188 181.195312 263.082031 C 180.542969 264.046875 179.828125 264.957031 179.042969 265.816406 C 178.257812 266.675781 177.417969 267.476562 176.515625 268.210938 C 175.613281 268.949219 174.664062 269.613281 173.667969 270.210938 C 172.667969 270.808594 171.632812 271.332031 170.558594 271.777344 C 169.484375 272.222656 168.382812 272.589844 167.253906 272.875 C 166.125 273.160156 164.984375 273.359375 163.824219 273.480469 C 162.667969 273.597656 161.507812 273.628906 160.34375 273.578125 C 159.183594 273.527344 158.03125 273.390625 156.886719 273.167969 C 155.746094 272.949219 154.625 272.644531 153.527344 272.261719 C 152.429688 271.878906 151.363281 271.414062 150.335938 270.875 C 149.304688 270.335938 148.316406 269.722656 147.375 269.039062 C 146.433594 268.355469 145.550781 267.605469 144.71875 266.792969 L 81.792969 203.867188 C 81.242188 203.320312 80.714844 202.742188 80.21875 202.140625 C 79.722656 201.539062 79.257812 200.914062 78.820312 200.265625 C 78.386719 199.617188 77.984375 198.949219 77.613281 198.261719 C 77.246094 197.578125 76.910156 196.871094 76.609375 196.152344 C 76.3125 195.429688 76.046875 194.699219 75.820312 193.953125 C 75.59375 193.207031 75.402344 192.449219 75.25 191.683594 C 75.097656 190.917969 74.980469 190.148438 74.90625 189.371094 C 74.828125 188.59375 74.789062 187.816406 74.789062 187.035156 C 74.789062 186.253906 74.828125 185.476562 74.90625 184.699219 C 74.980469 183.925781 75.097656 183.152344 75.25 182.386719 C 75.402344 181.621094 75.59375 180.867188 75.820312 180.121094 C 76.046875 179.375 76.3125 178.640625 76.609375 177.921875 C 76.910156 177.199219 77.246094 176.496094 77.613281 175.808594 C 77.984375 175.121094 78.386719 174.453125 78.820312 173.804688 C 79.257812 173.15625 79.722656 172.535156 80.21875 171.929688 C 80.714844 171.328125 81.242188 170.753906 81.792969 170.203125 L 144.71875 107.28125 C 145.550781 106.464844 146.433594 105.71875 147.375 105.03125 C 148.316406 104.347656 149.304688 103.738281 150.335938 103.195312 C 151.363281 102.65625 152.429688 102.195312 153.527344 101.808594 C 154.625 101.425781 155.746094 101.125 156.886719 100.902344 C 158.03125 100.683594 159.183594 100.546875 160.34375 100.496094 C 161.507812 100.441406 162.667969 100.476562 163.824219 100.59375 C 164.984375 100.710938 166.125 100.914062 167.253906 101.199219 C 168.382812 101.484375 169.484375 101.847656 170.558594 102.292969 C 171.632812 102.738281 172.667969 103.261719 173.667969 103.859375 C 174.664062 104.457031 175.613281 105.125 176.515625 105.859375 C 177.417969 106.597656 178.257812 107.394531 179.042969 108.253906 C 179.828125 109.113281 180.542969 110.027344 181.195312 110.992188 C 181.84375 111.957031 182.421875 112.964844 182.925781 114.011719 C 183.429688 115.0625 183.851562 116.140625 184.199219 117.253906 C 184.542969 118.363281 184.808594 119.492188 184.988281 120.644531 C 185.167969 121.792969 185.261719 122.949219 185.273438 124.113281 C 185.28125 125.671875 185.136719 127.214844 184.835938 128.746094 C 184.539062 130.277344 184.089844 131.761719 183.492188 133.203125 C 182.894531 134.640625 182.164062 136.007812 181.292969 137.304688 C 180.421875 138.597656 179.433594 139.792969 178.324219 140.886719 L 156.015625 163.257812 L 276.949219 163.257812 C 277.726562 163.257812 278.503906 163.292969 279.277344 163.371094 C 280.054688 163.445312 280.824219 163.5625 281.585938 163.714844 C 282.351562 163.863281 283.105469 164.054688 283.851562 164.28125 C 284.597656 164.507812 285.328125 164.769531 286.046875 165.066406 C 286.765625 165.363281 287.46875 165.695312 288.15625 166.0625 C 288.84375 166.429688 289.511719 166.832031 290.160156 167.265625 C 290.804688 167.695312 291.429688 168.160156 292.035156 168.652344 C 292.636719 169.148438 293.210938 169.671875 293.761719 170.222656 C 294.3125 170.773438 294.835938 171.347656 295.328125 171.949219 C 295.824219 172.550781 296.285156 173.175781 296.71875 173.824219 C 297.152344 174.472656 297.550781 175.140625 297.917969 175.828125 C 298.285156 176.511719 298.621094 177.214844 298.917969 177.9375 C 299.214844 178.65625 299.476562 179.386719 299.703125 180.132812 C 299.929688 180.878906 300.117188 181.632812 300.269531 182.398438 C 300.421875 183.160156 300.535156 183.929688 300.613281 184.707031 C 300.6875 185.480469 300.726562 186.257812 300.726562 187.035156 C 300.726562 187.816406 300.6875 188.59375 300.613281 189.367188 C 300.535156 190.140625 300.421875 190.910156 300.269531 191.675781 C 300.117188 192.4375 299.929688 193.195312 299.703125 193.9375 C 299.476562 194.683594 299.214844 195.417969 298.917969 196.136719 C 298.621094 196.855469 298.285156 197.558594 297.917969 198.246094 C 297.550781 198.933594 297.152344 199.601562 296.71875 200.246094 C 296.285156 200.894531 295.824219 201.519531 295.328125 202.121094 C 294.835938 202.722656 294.3125 203.300781 293.761719 203.851562 C 293.210938 204.402344 292.636719 204.925781 292.035156 205.417969 C 291.429688 205.914062 290.804688 206.375 290.160156 206.808594 C 289.511719 207.242188 288.84375 207.640625 288.15625 208.007812 C 287.46875 208.375 286.765625 208.707031 286.046875 209.003906 C 285.328125 209.304688 284.597656 209.566406 283.851562 209.792969 C 283.105469 210.019531 282.351562 210.207031 281.585938 210.359375 C 280.824219 210.511719 280.054688 210.625 279.277344 210.703125 C 278.503906 210.777344 277.726562 210.816406 276.949219 210.816406 Z M 276.949219 210.816406 " fill-opacity="1" fill-rule="nonzero"/></g></svg>