<svg xmlns="http://www.w3.org/2000/svg" xmlns:xlink="http://www.w3.org/1999/xlink" width="500" zoomAndPan="magnify" viewBox="0 0 375 374.999991" height="500" preserveAspectRatio="xMidYMid meet" version="1.0"><defs><clipPath id="160cc53032"><path d="M 7.207031 6.484375 L 368.707031 6.484375 L 368.707031 367.984375 L 7.207031 367.984375 Z M 7.207031 6.484375 " clip-rule="nonzero"/></clipPath></defs><g clip-path="url(#160cc53032)"><path fill="#000000" d="M 187.957031 367.984375 C 190.917969 367.984375 193.871094 367.914062 196.828125 367.769531 C 199.78125 367.621094 202.730469 367.40625 205.675781 367.113281 C 208.617188 366.824219 211.554688 366.464844 214.480469 366.027344 C 217.40625 365.59375 220.320312 365.089844 223.21875 364.511719 C 226.121094 363.933594 229.007812 363.289062 231.875 362.570312 C 234.746094 361.851562 237.597656 361.0625 240.425781 360.203125 C 243.257812 359.34375 246.066406 358.414062 248.851562 357.417969 C 251.636719 356.421875 254.394531 355.359375 257.128906 354.226562 C 259.859375 353.09375 262.5625 351.894531 265.238281 350.632812 C 267.914062 349.367188 270.554688 348.035156 273.164062 346.644531 C 275.773438 345.25 278.34375 343.789062 280.882812 342.269531 C 283.417969 340.75 285.917969 339.167969 288.378906 337.523438 C 290.835938 335.878906 293.253906 334.175781 295.628906 332.414062 C 298.007812 330.652344 300.335938 328.832031 302.625 326.957031 C 304.910156 325.082031 307.148438 323.148438 309.34375 321.164062 C 311.535156 319.175781 313.675781 317.136719 315.765625 315.042969 C 317.859375 312.953125 319.898438 310.8125 321.886719 308.621094 C 323.871094 306.429688 325.804688 304.1875 327.679688 301.902344 C 329.554688 299.617188 331.375 297.285156 333.136719 294.90625 C 334.898438 292.53125 336.601562 290.113281 338.246094 287.65625 C 339.890625 285.195312 341.472656 282.695312 342.992188 280.160156 C 344.511719 277.621094 345.972656 275.050781 347.363281 272.441406 C 348.757812 269.832031 350.089844 267.191406 351.355469 264.515625 C 352.617188 261.84375 353.816406 259.136719 354.949219 256.40625 C 356.082031 253.671875 357.144531 250.914062 358.140625 248.128906 C 359.136719 245.34375 360.066406 242.535156 360.925781 239.703125 C 361.785156 236.875 362.574219 234.023438 363.292969 231.152344 C 364.011719 228.285156 364.65625 225.398438 365.234375 222.496094 C 365.8125 219.597656 366.316406 216.683594 366.75 213.757812 C 367.1875 210.832031 367.546875 207.894531 367.835938 204.953125 C 368.128906 202.007812 368.34375 199.058594 368.488281 196.105469 C 368.636719 193.148438 368.707031 190.195312 368.707031 187.234375 C 368.707031 184.277344 368.636719 181.320312 368.488281 178.367188 C 368.34375 175.410156 368.128906 172.460938 367.835938 169.519531 C 367.546875 166.574219 367.1875 163.640625 366.75 160.714844 C 366.316406 157.789062 365.8125 154.875 365.234375 151.972656 C 364.65625 149.070312 364.011719 146.1875 363.292969 143.316406 C 362.574219 140.445312 361.785156 137.597656 360.925781 134.765625 C 360.066406 131.9375 359.136719 129.128906 358.140625 126.34375 C 357.144531 123.558594 356.082031 120.796875 354.949219 118.066406 C 353.816406 115.332031 352.617188 112.628906 351.355469 109.953125 C 350.089844 107.28125 348.757812 104.640625 347.363281 102.03125 C 345.972656 99.421875 344.511719 96.847656 342.992188 94.3125 C 341.472656 91.773438 339.890625 89.277344 338.246094 86.816406 C 336.601562 84.355469 334.898438 81.9375 333.136719 79.5625 C 331.375 77.1875 329.554688 74.855469 327.679688 72.570312 C 325.804688 70.28125 323.871094 68.042969 321.886719 65.851562 C 319.898438 63.660156 317.859375 61.515625 315.765625 59.425781 C 313.675781 57.335938 311.535156 55.296875 309.34375 53.308594 C 307.148438 51.320312 304.910156 49.390625 302.625 47.515625 C 300.335938 45.636719 298.007812 43.816406 295.628906 42.054688 C 293.253906 40.292969 290.835938 38.589844 288.378906 36.945312 C 285.917969 35.304688 283.417969 33.722656 280.882812 32.199219 C 278.34375 30.679688 275.773438 29.222656 273.164062 27.828125 C 270.554688 26.433594 267.914062 25.105469 265.238281 23.839844 C 262.5625 22.574219 259.859375 21.375 257.128906 20.246094 C 254.394531 19.113281 251.636719 18.046875 248.851562 17.050781 C 246.066406 16.054688 243.257812 15.128906 240.425781 14.269531 C 237.597656 13.410156 234.746094 12.621094 231.875 11.902344 C 229.007812 11.183594 226.121094 10.535156 223.21875 9.957031 C 220.320312 9.382812 217.40625 8.875 214.480469 8.441406 C 211.554688 8.007812 208.617188 7.644531 205.675781 7.355469 C 202.730469 7.066406 199.78125 6.847656 196.828125 6.703125 C 193.871094 6.558594 190.917969 6.484375 187.957031 6.484375 C 185 6.484375 182.042969 6.558594 179.089844 6.703125 C 176.132812 6.847656 173.183594 7.066406 170.242188 7.355469 C 167.296875 7.644531 164.363281 8.007812 161.4375 8.441406 C 158.511719 8.875 155.597656 9.382812 152.695312 9.957031 C 149.792969 10.535156 146.910156 11.183594 144.039062 11.902344 C 141.167969 12.621094 138.320312 13.410156 135.488281 14.269531 C 132.660156 15.128906 129.851562 16.054688 127.066406 17.050781 C 124.28125 18.046875 121.519531 19.113281 118.789062 20.246094 C 116.054688 21.375 113.351562 22.574219 110.675781 23.839844 C 108.003906 25.105469 105.363281 26.433594 102.753906 27.828125 C 100.144531 29.222656 97.570312 30.679688 95.035156 32.199219 C 92.496094 33.722656 90 35.304688 87.539062 36.945312 C 85.078125 38.589844 82.660156 40.292969 80.285156 42.054688 C 77.910156 43.816406 75.578125 45.636719 73.292969 47.515625 C 71.003906 49.390625 68.765625 51.320312 66.574219 53.308594 C 64.382812 55.296875 62.238281 57.335938 60.148438 59.425781 C 58.058594 61.515625 56.015625 63.660156 54.03125 65.851562 C 52.042969 68.042969 50.113281 70.28125 48.234375 72.570312 C 46.359375 74.855469 44.539062 77.1875 42.777344 79.5625 C 41.015625 81.9375 39.3125 84.355469 37.667969 86.816406 C 36.027344 89.277344 34.445312 91.773438 32.921875 94.3125 C 31.402344 96.847656 29.945312 99.421875 28.550781 102.03125 C 27.15625 104.640625 25.828125 107.28125 24.5625 109.953125 C 23.296875 112.628906 22.097656 115.332031 20.964844 118.066406 C 19.835938 120.796875 18.769531 123.558594 17.773438 126.34375 C 16.777344 129.128906 15.851562 131.9375 14.992188 134.765625 C 14.132812 137.597656 13.34375 140.445312 12.625 143.316406 C 11.90625 146.1875 11.257812 149.070312 10.679688 151.972656 C 10.105469 154.875 9.597656 157.789062 9.164062 160.714844 C 8.730469 163.640625 8.367188 166.574219 8.078125 169.519531 C 7.789062 172.460938 7.570312 175.410156 7.425781 178.367188 C 7.28125 181.320312 7.207031 184.277344 7.207031 187.234375 C 7.207031 190.191406 7.28125 193.148438 7.425781 196.105469 C 7.570312 199.058594 7.789062 202.007812 8.082031 204.953125 C 8.371094 207.894531 8.734375 210.828125 9.167969 213.753906 C 9.601562 216.683594 10.105469 219.59375 10.683594 222.496094 C 11.261719 225.398438 11.910156 228.28125 12.628906 231.152344 C 13.347656 234.019531 14.136719 236.871094 14.996094 239.703125 C 15.855469 242.53125 16.78125 245.339844 17.78125 248.125 C 18.777344 250.910156 19.839844 253.667969 20.972656 256.402344 C 22.105469 259.132812 23.304688 261.839844 24.566406 264.511719 C 25.832031 267.1875 27.164062 269.828125 28.558594 272.4375 C 29.953125 275.042969 31.410156 277.617188 32.929688 280.15625 C 34.453125 282.691406 36.035156 285.191406 37.675781 287.648438 C 39.320312 290.109375 41.023438 292.527344 42.785156 294.902344 C 44.546875 297.277344 46.367188 299.609375 48.242188 301.894531 C 50.121094 304.183594 52.050781 306.421875 54.039062 308.613281 C 56.023438 310.804688 58.0625 312.945312 60.15625 315.039062 C 62.246094 317.128906 64.386719 319.167969 66.578125 321.15625 C 68.773438 323.140625 71.011719 325.074219 73.296875 326.949219 C 75.585938 328.828125 77.914062 330.644531 80.292969 332.40625 C 82.667969 334.171875 85.085938 335.871094 87.542969 337.515625 C 90.003906 339.160156 92.5 340.742188 95.039062 342.261719 C 97.574219 343.785156 100.148438 345.242188 102.757812 346.636719 C 105.367188 348.03125 108.007812 349.359375 110.679688 350.625 C 113.355469 351.890625 116.058594 353.089844 118.792969 354.21875 C 121.523438 355.351562 124.28125 356.417969 127.066406 357.414062 C 129.851562 358.410156 132.660156 359.339844 135.492188 360.195312 C 138.320312 361.054688 141.171875 361.84375 144.042969 362.5625 C 146.910156 363.28125 149.796875 363.929688 152.695312 364.507812 C 155.597656 365.085938 158.511719 365.589844 161.4375 366.027344 C 164.363281 366.460938 167.296875 366.824219 170.242188 367.113281 C 173.1875 367.402344 176.136719 367.621094 179.089844 367.765625 C 182.042969 367.910156 185 367.984375 187.957031 367.984375 Z M 98.769531 163.457031 L 219.703125 163.457031 L 197.390625 141.085938 C 196.28125 139.992188 195.292969 138.796875 194.421875 137.503906 C 193.554688 136.207031 192.820312 134.839844 192.222656 133.402344 C 191.628906 131.960938 191.179688 130.476562 190.878906 128.945312 C 190.578125 127.414062 190.433594 125.871094 190.441406 124.3125 C 190.453125 123.148438 190.550781 121.992188 190.730469 120.84375 C 190.910156 119.691406 191.171875 118.5625 191.519531 117.453125 C 191.863281 116.339844 192.289062 115.261719 192.789062 114.210938 C 193.292969 113.164062 193.871094 112.15625 194.523438 111.191406 C 195.171875 110.226562 195.890625 109.3125 196.671875 108.453125 C 197.457031 107.59375 198.300781 106.796875 199.199219 106.058594 C 200.101562 105.324219 201.050781 104.65625 202.050781 104.058594 C 203.046875 103.460938 204.085938 102.9375 205.160156 102.492188 C 206.234375 102.046875 207.335938 101.683594 208.460938 101.398438 C 209.589844 101.113281 210.734375 100.910156 211.890625 100.792969 C 213.046875 100.675781 214.207031 100.640625 215.371094 100.695312 C 216.535156 100.746094 217.6875 100.882812 218.828125 101.101562 C 219.96875 101.324219 221.089844 101.625 222.1875 102.007812 C 223.289062 102.394531 224.351562 102.855469 225.382812 103.394531 C 226.414062 103.9375 227.398438 104.546875 228.339844 105.230469 C 229.28125 105.917969 230.167969 106.664062 231 107.480469 L 293.921875 170.402344 C 294.476562 170.953125 295 171.527344 295.496094 172.128906 C 295.996094 172.734375 296.460938 173.355469 296.894531 174.003906 C 297.332031 174.652344 297.734375 175.320312 298.101562 176.007812 C 298.472656 176.695312 298.804688 177.398438 299.105469 178.121094 C 299.40625 178.839844 299.667969 179.574219 299.898438 180.320312 C 300.125 181.066406 300.3125 181.820312 300.46875 182.585938 C 300.621094 183.351562 300.734375 184.125 300.8125 184.898438 C 300.886719 185.675781 300.925781 186.453125 300.925781 187.234375 C 300.925781 188.015625 300.886719 188.792969 300.8125 189.570312 C 300.734375 190.347656 300.621094 191.117188 300.46875 191.882812 C 300.3125 192.648438 300.125 193.402344 299.898438 194.152344 C 299.667969 194.898438 299.40625 195.628906 299.105469 196.351562 C 298.804688 197.070312 298.472656 197.777344 298.101562 198.460938 C 297.734375 199.148438 297.332031 199.816406 296.894531 200.464844 C 296.460938 201.113281 295.996094 201.738281 295.496094 202.339844 C 295 202.941406 294.476562 203.519531 293.921875 204.066406 L 231 266.992188 C 230.167969 267.804688 229.28125 268.554688 228.339844 269.238281 C 227.398438 269.921875 226.414062 270.535156 225.382812 271.074219 C 224.351562 271.613281 223.289062 272.078125 222.1875 272.460938 C 221.089844 272.84375 219.96875 273.148438 218.828125 273.367188 C 217.6875 273.589844 216.535156 273.726562 215.371094 273.777344 C 214.207031 273.828125 213.046875 273.796875 211.890625 273.679688 C 210.734375 273.558594 209.589844 273.359375 208.460938 273.074219 C 207.335938 272.789062 206.234375 272.421875 205.160156 271.976562 C 204.085938 271.53125 203.046875 271.007812 202.050781 270.410156 C 201.050781 269.8125 200.101562 269.148438 199.199219 268.410156 C 198.300781 267.675781 197.457031 266.875 196.671875 266.015625 C 195.890625 265.15625 195.171875 264.246094 194.523438 263.28125 C 193.871094 262.316406 193.292969 261.308594 192.789062 260.257812 C 192.289062 259.210938 191.863281 258.128906 191.519531 257.019531 C 191.171875 255.90625 190.910156 254.777344 190.730469 253.628906 C 190.550781 252.480469 190.453125 251.324219 190.441406 250.160156 C 190.433594 248.601562 190.578125 247.054688 190.878906 245.523438 C 191.179688 243.996094 191.628906 242.511719 192.222656 241.070312 C 192.820312 239.628906 193.554688 238.261719 194.421875 236.96875 C 195.292969 235.675781 196.28125 234.480469 197.390625 233.382812 L 219.703125 211.015625 L 98.769531 211.015625 C 97.992188 211.015625 97.214844 210.976562 96.4375 210.902344 C 95.664062 210.824219 94.894531 210.710938 94.128906 210.558594 C 93.367188 210.40625 92.613281 210.21875 91.867188 209.992188 C 91.121094 209.765625 90.386719 209.503906 89.667969 209.207031 C 88.949219 208.90625 88.246094 208.574219 87.558594 208.207031 C 86.871094 207.839844 86.207031 207.441406 85.558594 207.007812 C 84.910156 206.574219 84.285156 206.113281 83.683594 205.617188 C 83.082031 205.125 82.503906 204.601562 81.953125 204.050781 C 81.402344 203.5 80.882812 202.921875 80.386719 202.320312 C 79.894531 201.71875 79.429688 201.09375 78.996094 200.445312 C 78.5625 199.800781 78.164062 199.132812 77.796875 198.445312 C 77.429688 197.757812 77.097656 197.054688 76.800781 196.335938 C 76.5 195.617188 76.238281 194.882812 76.011719 194.136719 C 75.785156 193.394531 75.597656 192.636719 75.445312 191.875 C 75.292969 191.109375 75.179688 190.339844 75.105469 189.566406 C 75.027344 188.792969 74.988281 188.015625 74.988281 187.234375 C 74.988281 186.457031 75.027344 185.679688 75.105469 184.90625 C 75.179688 184.128906 75.292969 183.359375 75.445312 182.597656 C 75.597656 181.832031 75.785156 181.078125 76.011719 180.332031 C 76.238281 179.585938 76.5 178.855469 76.800781 178.136719 C 77.097656 177.414062 77.429688 176.710938 77.796875 176.027344 C 78.164062 175.339844 78.5625 174.671875 78.996094 174.023438 C 79.429688 173.375 79.894531 172.75 80.386719 172.148438 C 80.882812 171.546875 81.402344 170.972656 81.953125 170.421875 C 82.503906 169.871094 83.082031 169.347656 83.683594 168.851562 C 84.285156 168.359375 84.910156 167.894531 85.558594 167.464844 C 86.207031 167.03125 86.871094 166.628906 87.558594 166.261719 C 88.246094 165.894531 88.949219 165.5625 89.667969 165.265625 C 90.386719 164.96875 91.121094 164.707031 91.867188 164.480469 C 92.613281 164.253906 93.367188 164.0625 94.128906 163.914062 C 94.894531 163.761719 95.664062 163.644531 96.4375 163.570312 C 97.214844 163.492188 97.992188 163.457031 98.769531 163.457031 Z M 98.769531 163.457031 " fill-opacity="1" fill-rule="nonzero"/></g></svg>