<svg xmlns="http://www.w3.org/2000/svg" xmlns:xlink="http://www.w3.org/1999/xlink" width="500" zoomAndPan="magnify" viewBox="0 0 375 374.999991" height="500" preserveAspectRatio="xMidYMid meet" version="1.0"><defs><clipPath id="35d260f98f"><path d="M 14.9375 16 L 362.1875 16 L 362.1875 362.796875 L 14.9375 362.796875 Z M 14.9375 16 " clip-rule="nonzero"/></clipPath></defs><path fill="#000000" d="M 187.394531 190.34375 C 199.878906 190.34375 209.242188 186.441406 214.707031 184.101562 C 217.828125 183.320312 219.386719 180.980469 217.046875 177.859375 L 213.144531 171.617188 C 211.582031 169.273438 209.242188 169.273438 206.902344 170.835938 C 202.21875 174.738281 194.417969 177.078125 186.613281 177.078125 C 161.640625 177.078125 142.914062 158.351562 142.914062 133.378906 C 142.914062 108.410156 163.203125 88.121094 188.175781 88.121094 C 216.265625 88.121094 231.871094 107.628906 231.871094 133.378906 C 231.871094 145.863281 226.410156 154.449219 220.949219 154.449219 C 217.828125 154.449219 216.265625 152.886719 216.265625 148.207031 L 216.265625 120.894531 C 216.265625 117.773438 217.046875 113.089844 218.605469 109.96875 L 218.605469 109.1875 C 220.167969 106.066406 217.828125 103.726562 214.707031 103.726562 L 203.78125 103.726562 C 200.660156 103.726562 198.316406 105.289062 199.097656 106.847656 C 199.878906 108.410156 198.316406 108.410156 195.976562 106.066406 C 192.855469 103.726562 188.175781 101.386719 181.929688 101.386719 C 165.542969 101.386719 154.621094 115.433594 154.621094 132.597656 C 154.621094 151.328125 168.664062 163.8125 183.492188 163.8125 C 189.734375 163.8125 195.195312 161.472656 199.878906 157.570312 C 202.21875 155.230469 203.78125 153.667969 203.78125 154.449219 C 203.78125 155.230469 203.78125 155.230469 203.78125 155.230469 C 205.339844 162.253906 211.582031 165.375 219.386719 165.375 C 234.214844 165.375 245.136719 152.109375 245.136719 132.597656 C 245.136719 99.824219 220.949219 75.632812 188.175781 75.632812 C 155.398438 75.632812 129.648438 100.605469 129.648438 133.378906 C 130.429688 166.152344 154.621094 190.34375 187.394531 190.34375 Z M 186.613281 149.765625 C 178.808594 149.765625 174.128906 141.964844 174.128906 133.378906 C 174.128906 124.796875 178.808594 117.773438 186.613281 117.773438 C 195.195312 117.773438 199.878906 124.796875 199.878906 133.378906 C 199.878906 142.742188 194.417969 149.765625 186.613281 149.765625 Z M 186.613281 149.765625 " fill-opacity="1" fill-rule="nonzero"/><g clip-path="url(#35d260f98f)"><path fill="#000000" d="M 361.410156 160.691406 C 361.410156 159.128906 360.628906 158.351562 360.628906 157.570312 C 359.847656 156.789062 359.847656 156.007812 359.066406 155.230469 L 310.6875 115.433594 L 310.6875 43.640625 C 310.6875 38.957031 307.566406 35.835938 302.882812 35.835938 L 214.707031 35.835938 L 192.855469 17.890625 C 189.734375 15.546875 185.832031 15.546875 182.710938 17.890625 L 160.863281 35.835938 L 73.464844 35.835938 C 68.78125 35.835938 65.660156 38.957031 65.660156 43.640625 L 65.660156 115.433594 L 17.28125 155.230469 C 16.5 156.007812 15.71875 156.789062 15.71875 157.570312 C 15.71875 158.351562 14.9375 159.128906 14.9375 159.910156 C 14.9375 159.910156 14.9375 160.691406 14.9375 160.691406 C 14.9375 160.691406 14.9375 160.691406 14.9375 161.472656 L 14.9375 354.996094 C 14.9375 359.675781 18.058594 362.796875 22.742188 362.796875 L 354.386719 362.796875 C 359.066406 362.796875 362.1875 359.675781 362.1875 354.996094 L 361.410156 160.691406 C 362.1875 160.691406 361.410156 160.691406 361.410156 160.691406 Z M 346.582031 173.957031 L 346.582031 289.445312 L 249.820312 223.898438 Z M 339.558594 159.910156 L 310.6875 174.738281 L 310.6875 135.71875 Z M 188.175781 34.277344 L 190.515625 35.835938 L 185.832031 35.835938 Z M 295.078125 51.445312 L 295.078125 182.539062 L 188.175781 237.945312 L 81.269531 183.320312 L 81.269531 51.445312 Z M 30.546875 173.957031 L 127.308594 223.898438 L 30.546875 289.445312 Z M 65.660156 174.738281 L 36.789062 159.910156 L 65.660156 135.71875 Z M 30.546875 347.191406 L 30.546875 308.175781 L 142.914062 231.703125 L 185.050781 253.550781 C 187.394531 254.332031 189.734375 254.332031 192.074219 253.550781 L 234.214844 231.703125 L 346.582031 308.175781 L 346.582031 347.191406 Z M 30.546875 347.191406 " fill-opacity="1" fill-rule="nonzero"/></g></svg>