<svg xmlns="http://www.w3.org/2000/svg" xmlns:xlink="http://www.w3.org/1999/xlink" width="500" zoomAndPan="magnify" viewBox="0 0 375 374.999991" height="500" preserveAspectRatio="xMidYMid meet" version="1.0"><defs><clipPath id="51b1698969"><path d="M 18.140625 18.140625 L 357.140625 18.140625 L 357.140625 357.140625 L 18.140625 357.140625 Z M 18.140625 18.140625 " clip-rule="nonzero"/></clipPath></defs><g clip-path="url(#51b1698969)"><path fill="#000000" d="M 357.140625 305.589844 C 357.140625 334.039062 334.078125 357.101562 305.632812 357.101562 L 69.664062 357.101562 C 41.214844 357.101562 18.152344 334.039062 18.152344 305.589844 L 18.152344 69.625 C 18.152344 41.175781 41.214844 18.113281 69.664062 18.113281 L 305.628906 18.113281 C 334.078125 18.113281 357.140625 41.175781 357.140625 69.625 Z M 357.140625 305.589844 " fill-opacity="1" fill-rule="nonzero"/></g><path fill="#ffffff" d="M 242.765625 213.945312 L 248.25 171.441406 L 206.15625 171.441406 L 206.15625 144.304688 C 206.15625 131.996094 209.59375 123.613281 227.234375 123.613281 L 249.722656 123.597656 L 249.722656 85.585938 C 245.839844 85.066406 232.492188 83.910156 216.933594 83.910156 C 184.480469 83.910156 162.277344 103.722656 162.277344 140.101562 L 162.277344 171.441406 L 125.570312 171.441406 L 125.570312 213.945312 L 162.277344 213.945312 L 162.277344 323.003906 L 206.15625 323.003906 L 206.15625 213.945312 Z M 242.765625 213.945312 " fill-opacity="1" fill-rule="nonzero"/></svg>