<svg xmlns="http://www.w3.org/2000/svg" xmlns:xlink="http://www.w3.org/1999/xlink" width="193" zoomAndPan="magnify" viewBox="0 0 144.75 60" height="80" preserveAspectRatio="xMidYMid meet" version="1.0"><defs><g/><clipPath id="46a08683a3"><path d="M 28.003906 7.957031 L 30.464844 7.957031 L 30.464844 10.417969 L 28.003906 10.417969 Z M 28.003906 7.957031 " clip-rule="nonzero"/></clipPath><clipPath id="7525467d43"><path d="M 28.003906 53.636719 L 30.464844 53.636719 L 30.464844 56.097656 L 28.003906 56.097656 Z M 28.003906 53.636719 " clip-rule="nonzero"/></clipPath><clipPath id="53bc9cd5ea"><path d="M 35.75 3.816406 L 38.210938 3.816406 L 38.210938 6.277344 L 35.75 6.277344 Z M 35.75 3.816406 " clip-rule="nonzero"/></clipPath><clipPath id="abae995f44"><path d="M 20.53125 3.816406 L 22.988281 3.816406 L 22.988281 6.277344 L 20.53125 6.277344 Z M 20.53125 3.816406 " clip-rule="nonzero"/></clipPath><clipPath id="ab4038e995"><path d="M 41.742188 7.957031 L 44.203125 7.957031 L 44.203125 10.417969 L 41.742188 10.417969 Z M 41.742188 7.957031 " clip-rule="nonzero"/></clipPath><clipPath id="aebbb7dd8f"><path d="M 13.878906 7.957031 L 16.335938 7.957031 L 16.335938 10.417969 L 13.878906 10.417969 Z M 13.878906 7.957031 " clip-rule="nonzero"/></clipPath><clipPath id="d52e91b198"><path d="M 35.75 49.660156 L 38.210938 49.660156 L 38.210938 52.121094 L 35.75 52.121094 Z M 35.75 49.660156 " clip-rule="nonzero"/></clipPath><clipPath id="457f528735"><path d="M 20.53125 49.660156 L 22.988281 49.660156 L 22.988281 52.121094 L 20.53125 52.121094 Z M 20.53125 49.660156 " clip-rule="nonzero"/></clipPath><clipPath id="11b46b9ba8"><path d="M 41.742188 15.089844 L 44.203125 15.089844 L 44.203125 17.550781 L 41.742188 17.550781 Z M 41.742188 15.089844 " clip-rule="nonzero"/></clipPath><clipPath id="21e7610bc3"><path d="M 13.878906 15.089844 L 16.335938 15.089844 L 16.335938 17.550781 L 13.878906 17.550781 Z M 13.878906 15.089844 " clip-rule="nonzero"/></clipPath><clipPath id="4959f528eb"><path d="M 46.21875 19.230469 L 48.675781 19.230469 L 48.675781 21.691406 L 46.21875 21.691406 Z M 46.21875 19.230469 " clip-rule="nonzero"/></clipPath><clipPath id="a03b518389"><path d="M 46.21875 25.308594 L 48.675781 25.308594 L 48.675781 27.769531 L 46.21875 27.769531 Z M 46.21875 25.308594 " clip-rule="nonzero"/></clipPath><clipPath id="ace65c0e9b"><path d="M 41.742188 31.5625 L 44.203125 31.5625 L 44.203125 34.023438 L 41.742188 34.023438 Z M 41.742188 31.5625 " clip-rule="nonzero"/></clipPath><clipPath id="bbcbd203f2"><path d="M 41.742188 38.3125 L 44.203125 38.3125 L 44.203125 40.773438 L 41.742188 40.773438 Z M 41.742188 38.3125 " clip-rule="nonzero"/></clipPath><clipPath id="fd6e990178"><path d="M 35.75 42.628906 L 38.210938 42.628906 L 38.210938 45.089844 L 35.75 45.089844 Z M 35.75 42.628906 " clip-rule="nonzero"/></clipPath><clipPath id="c9904a5b63"><path d="M 20.53125 42.628906 L 22.988281 42.628906 L 22.988281 45.089844 L 20.53125 45.089844 Z M 20.53125 42.628906 " clip-rule="nonzero"/></clipPath><clipPath id="ca0d5b87f5"><path d="M 13.878906 38.3125 L 16.335938 38.3125 L 16.335938 40.773438 L 13.878906 40.773438 Z M 13.878906 38.3125 " clip-rule="nonzero"/></clipPath><clipPath id="3a7dd4b8a7"><path d="M 13.878906 31.5625 L 16.335938 31.5625 L 16.335938 34.023438 L 13.878906 34.023438 Z M 13.878906 31.5625 " clip-rule="nonzero"/></clipPath><clipPath id="0c77642fcf"><path d="M 9.132812 19.230469 L 11.59375 19.230469 L 11.59375 21.691406 L 9.132812 21.691406 Z M 9.132812 19.230469 " clip-rule="nonzero"/></clipPath><clipPath id="44a126fdad"><path d="M 9.132812 25.308594 L 11.59375 25.308594 L 11.59375 27.769531 L 9.132812 27.769531 Z M 9.132812 25.308594 " clip-rule="nonzero"/></clipPath><clipPath id="bed1c8e771"><path d="M 35.75 19.230469 L 38.210938 19.230469 L 38.210938 21.691406 L 35.75 21.691406 Z M 35.75 19.230469 " clip-rule="nonzero"/></clipPath><clipPath id="d1b871da30"><path d="M 20.53125 19.230469 L 22.988281 19.230469 L 22.988281 21.691406 L 20.53125 21.691406 Z M 20.53125 19.230469 " clip-rule="nonzero"/></clipPath><clipPath id="029c244dd6"><path d="M 35.53125 25.308594 L 37.992188 25.308594 L 37.992188 27.769531 L 35.53125 27.769531 Z M 35.53125 25.308594 " clip-rule="nonzero"/></clipPath><clipPath id="6e3fef56de"><path d="M 20.53125 25.308594 L 22.988281 25.308594 L 22.988281 27.769531 L 20.53125 27.769531 Z M 20.53125 25.308594 " clip-rule="nonzero"/></clipPath><clipPath id="31f9de2c28"><path d="M 28.003906 31.5625 L 30.464844 31.5625 L 30.464844 34.023438 L 28.003906 34.023438 Z M 28.003906 31.5625 " clip-rule="nonzero"/></clipPath><clipPath id="5fc04cfb49"><path d="M 28.003906 38.3125 L 30.464844 38.3125 L 30.464844 40.773438 L 28.003906 40.773438 Z M 28.003906 38.3125 " clip-rule="nonzero"/></clipPath></defs><g clip-path="url(#46a08683a3)"><path fill="#000000" d="M 29.234375 7.957031 C 29.914062 7.957031 30.464844 8.507812 30.464844 9.1875 C 30.464844 9.867188 29.914062 10.417969 29.234375 10.417969 C 28.554688 10.417969 28.003906 9.867188 28.003906 9.1875 C 28.003906 8.507812 28.554688 7.957031 29.234375 7.957031 Z M 29.234375 7.957031 " fill-opacity="1" fill-rule="evenodd"/></g><g clip-path="url(#7525467d43)"><path fill="#000000" d="M 29.234375 53.636719 C 29.914062 53.636719 30.464844 54.1875 30.464844 54.867188 C 30.464844 55.546875 29.914062 56.097656 29.234375 56.097656 C 28.554688 56.097656 28.003906 55.546875 28.003906 54.867188 C 28.003906 54.1875 28.554688 53.636719 29.234375 53.636719 Z M 29.234375 53.636719 " fill-opacity="1" fill-rule="evenodd"/></g><g clip-path="url(#53bc9cd5ea)"><path fill="#000000" d="M 36.980469 3.816406 C 37.660156 3.816406 38.210938 4.367188 38.210938 5.046875 C 38.210938 5.726562 37.660156 6.277344 36.980469 6.277344 C 36.300781 6.277344 35.75 5.726562 35.75 5.046875 C 35.75 4.367188 36.300781 3.816406 36.980469 3.816406 Z M 36.980469 3.816406 " fill-opacity="1" fill-rule="evenodd"/></g><g clip-path="url(#abae995f44)"><path fill="#000000" d="M 21.757812 3.816406 C 22.4375 3.816406 22.988281 4.367188 22.988281 5.046875 C 22.988281 5.726562 22.4375 6.277344 21.757812 6.277344 C 21.082031 6.277344 20.53125 5.726562 20.53125 5.046875 C 20.53125 4.367188 21.082031 3.816406 21.757812 3.816406 Z M 21.757812 3.816406 " fill-opacity="1" fill-rule="evenodd"/></g><g clip-path="url(#ab4038e995)"><path fill="#000000" d="M 42.972656 7.957031 C 43.652344 7.957031 44.203125 8.507812 44.203125 9.1875 C 44.203125 9.867188 43.652344 10.417969 42.972656 10.417969 C 42.292969 10.417969 41.742188 9.867188 41.742188 9.1875 C 41.742188 8.507812 42.292969 7.957031 42.972656 7.957031 Z M 42.972656 7.957031 " fill-opacity="1" fill-rule="evenodd"/></g><g clip-path="url(#aebbb7dd8f)"><path fill="#000000" d="M 15.105469 7.957031 C 15.785156 7.957031 16.335938 8.507812 16.335938 9.1875 C 16.335938 9.867188 15.785156 10.417969 15.105469 10.417969 C 14.425781 10.417969 13.878906 9.867188 13.878906 9.1875 C 13.878906 8.507812 14.425781 7.957031 15.105469 7.957031 Z M 15.105469 7.957031 " fill-opacity="1" fill-rule="evenodd"/></g><g clip-path="url(#d52e91b198)"><path fill="#000000" d="M 36.980469 49.660156 C 37.660156 49.660156 38.210938 50.210938 38.210938 50.890625 C 38.210938 51.570312 37.660156 52.121094 36.980469 52.121094 C 36.300781 52.121094 35.75 51.570312 35.75 50.890625 C 35.75 50.210938 36.300781 49.660156 36.980469 49.660156 Z M 36.980469 49.660156 " fill-opacity="1" fill-rule="evenodd"/></g><g clip-path="url(#457f528735)"><path fill="#000000" d="M 21.757812 49.660156 C 22.4375 49.660156 22.988281 50.210938 22.988281 50.890625 C 22.988281 51.570312 22.4375 52.121094 21.757812 52.121094 C 21.082031 52.121094 20.53125 51.570312 20.53125 50.890625 C 20.53125 50.210938 21.082031 49.660156 21.757812 49.660156 Z M 21.757812 49.660156 " fill-opacity="1" fill-rule="evenodd"/></g><g clip-path="url(#11b46b9ba8)"><path fill="#000000" d="M 42.972656 15.089844 C 43.652344 15.089844 44.203125 15.640625 44.203125 16.320312 C 44.203125 17 43.652344 17.550781 42.972656 17.550781 C 42.292969 17.550781 41.742188 17 41.742188 16.320312 C 41.742188 15.640625 42.292969 15.089844 42.972656 15.089844 Z M 42.972656 15.089844 " fill-opacity="1" fill-rule="evenodd"/></g><g clip-path="url(#21e7610bc3)"><path fill="#000000" d="M 15.105469 15.089844 C 15.785156 15.089844 16.335938 15.640625 16.335938 16.320312 C 16.335938 17 15.785156 17.550781 15.105469 17.550781 C 14.425781 17.550781 13.878906 17 13.878906 16.320312 C 13.878906 15.640625 14.425781 15.089844 15.105469 15.089844 Z M 15.105469 15.089844 " fill-opacity="1" fill-rule="evenodd"/></g><g clip-path="url(#4959f528eb)"><path fill="#000000" d="M 47.445312 19.230469 C 48.125 19.230469 48.675781 19.78125 48.675781 20.460938 C 48.675781 21.140625 48.125 21.691406 47.445312 21.691406 C 46.769531 21.691406 46.21875 21.140625 46.21875 20.460938 C 46.21875 19.78125 46.769531 19.230469 47.445312 19.230469 Z M 47.445312 19.230469 " fill-opacity="1" fill-rule="evenodd"/></g><g clip-path="url(#a03b518389)"><path fill="#000000" d="M 47.445312 25.308594 C 48.125 25.308594 48.675781 25.859375 48.675781 26.539062 C 48.675781 27.21875 48.125 27.769531 47.445312 27.769531 C 46.769531 27.769531 46.21875 27.21875 46.21875 26.539062 C 46.21875 25.859375 46.769531 25.308594 47.445312 25.308594 Z M 47.445312 25.308594 " fill-opacity="1" fill-rule="evenodd"/></g><g clip-path="url(#ace65c0e9b)"><path fill="#000000" d="M 42.972656 31.5625 C 43.652344 31.5625 44.203125 32.113281 44.203125 32.792969 C 44.203125 33.472656 43.652344 34.023438 42.972656 34.023438 C 42.292969 34.023438 41.742188 33.472656 41.742188 32.792969 C 41.742188 32.113281 42.292969 31.5625 42.972656 31.5625 Z M 42.972656 31.5625 " fill-opacity="1" fill-rule="evenodd"/></g><g clip-path="url(#bbcbd203f2)"><path fill="#000000" d="M 42.972656 38.3125 C 43.652344 38.3125 44.203125 38.863281 44.203125 39.542969 C 44.203125 40.222656 43.652344 40.773438 42.972656 40.773438 C 42.292969 40.773438 41.742188 40.222656 41.742188 39.542969 C 41.742188 38.863281 42.292969 38.3125 42.972656 38.3125 Z M 42.972656 38.3125 " fill-opacity="1" fill-rule="evenodd"/></g><g clip-path="url(#fd6e990178)"><path fill="#000000" d="M 36.980469 42.628906 C 37.660156 42.628906 38.210938 43.179688 38.210938 43.859375 C 38.210938 44.539062 37.660156 45.089844 36.980469 45.089844 C 36.300781 45.089844 35.75 44.539062 35.75 43.859375 C 35.75 43.179688 36.300781 42.628906 36.980469 42.628906 Z M 36.980469 42.628906 " fill-opacity="1" fill-rule="evenodd"/></g><g clip-path="url(#c9904a5b63)"><path fill="#000000" d="M 21.757812 42.628906 C 22.4375 42.628906 22.988281 43.179688 22.988281 43.859375 C 22.988281 44.539062 22.4375 45.089844 21.757812 45.089844 C 21.082031 45.089844 20.53125 44.539062 20.53125 43.859375 C 20.53125 43.179688 21.082031 42.628906 21.757812 42.628906 Z M 21.757812 42.628906 " fill-opacity="1" fill-rule="evenodd"/></g><g clip-path="url(#ca0d5b87f5)"><path fill="#000000" d="M 15.105469 38.3125 C 15.785156 38.3125 16.335938 38.863281 16.335938 39.542969 C 16.335938 40.222656 15.785156 40.773438 15.105469 40.773438 C 14.425781 40.773438 13.878906 40.222656 13.878906 39.542969 C 13.878906 38.863281 14.425781 38.3125 15.105469 38.3125 Z M 15.105469 38.3125 " fill-opacity="1" fill-rule="evenodd"/></g><g clip-path="url(#3a7dd4b8a7)"><path fill="#000000" d="M 15.105469 31.5625 C 15.785156 31.5625 16.335938 32.113281 16.335938 32.792969 C 16.335938 33.472656 15.785156 34.023438 15.105469 34.023438 C 14.425781 34.023438 13.878906 33.472656 13.878906 32.792969 C 13.878906 32.113281 14.425781 31.5625 15.105469 31.5625 Z M 15.105469 31.5625 " fill-opacity="1" fill-rule="evenodd"/></g><g clip-path="url(#0c77642fcf)"><path fill="#000000" d="M 10.363281 19.230469 C 11.042969 19.230469 11.59375 19.78125 11.59375 20.460938 C 11.59375 21.140625 11.042969 21.691406 10.363281 21.691406 C 9.683594 21.691406 9.132812 21.140625 9.132812 20.460938 C 9.132812 19.78125 9.683594 19.230469 10.363281 19.230469 Z M 10.363281 19.230469 " fill-opacity="1" fill-rule="evenodd"/></g><g clip-path="url(#44a126fdad)"><path fill="#000000" d="M 10.363281 25.308594 C 11.042969 25.308594 11.59375 25.859375 11.59375 26.539062 C 11.59375 27.21875 11.042969 27.769531 10.363281 27.769531 C 9.683594 27.769531 9.132812 27.21875 9.132812 26.539062 C 9.132812 25.859375 9.683594 25.308594 10.363281 25.308594 Z M 10.363281 25.308594 " fill-opacity="1" fill-rule="evenodd"/></g><path stroke-linecap="butt" transform="matrix(-0.733323, -0.434562, 0.417964, -0.705314, 21.306684, 20.742222)" fill="none" stroke-linejoin="miter" d="M -0.00059263 0.498862 L 8.67201 0.499925 " stroke="#000000" stroke-width="1" stroke-opacity="1" stroke-miterlimit="4"/><g clip-path="url(#bed1c8e771)"><path fill="#000000" d="M 36.980469 19.230469 C 37.660156 19.230469 38.210938 19.78125 38.210938 20.460938 C 38.210938 21.140625 37.660156 21.691406 36.980469 21.691406 C 36.300781 21.691406 35.75 21.140625 35.75 20.460938 C 35.75 19.78125 36.300781 19.230469 36.980469 19.230469 Z M 36.980469 19.230469 " fill-opacity="1" fill-rule="evenodd"/></g><g clip-path="url(#d1b871da30)"><path fill="#000000" d="M 21.757812 19.230469 C 22.4375 19.230469 22.988281 19.78125 22.988281 20.460938 C 22.988281 21.140625 22.4375 21.691406 21.757812 21.691406 C 21.082031 21.691406 20.53125 21.140625 20.53125 20.460938 C 20.53125 19.78125 21.082031 19.230469 21.757812 19.230469 Z M 21.757812 19.230469 " fill-opacity="1" fill-rule="evenodd"/></g><g clip-path="url(#029c244dd6)"><path fill="#000000" d="M 36.761719 25.308594 C 37.441406 25.308594 37.992188 25.859375 37.992188 26.539062 C 37.992188 27.21875 37.441406 27.769531 36.761719 27.769531 C 36.082031 27.769531 35.53125 27.21875 35.53125 26.539062 C 35.53125 25.859375 36.082031 25.308594 36.761719 25.308594 Z M 36.761719 25.308594 " fill-opacity="1" fill-rule="evenodd"/></g><path stroke-linecap="butt" transform="matrix(-0.686531, 0.505254, -0.485956, -0.66031, 43.058836, 16.807442)" fill="none" stroke-linejoin="miter" d="M -0.00102183 0.500316 L 8.671399 0.498743 " stroke="#000000" stroke-width="1" stroke-opacity="1" stroke-miterlimit="4"/><g clip-path="url(#6e3fef56de)"><path fill="#000000" d="M 21.757812 25.308594 C 22.4375 25.308594 22.988281 25.859375 22.988281 26.539062 C 22.988281 27.21875 22.4375 27.769531 21.757812 27.769531 C 21.082031 27.769531 20.53125 27.21875 20.53125 26.539062 C 20.53125 25.859375 21.082031 25.308594 21.757812 25.308594 Z M 21.757812 25.308594 " fill-opacity="1" fill-rule="evenodd"/></g><path stroke-linecap="butt" transform="matrix(0, -0.852412, 0.819855, 0, 21.439334, 26.628996)" fill="none" stroke-linejoin="miter" d="M 0.000104873 0.498042 L 8.670352 0.498042 " stroke="#000000" stroke-width="1" stroke-opacity="1" stroke-miterlimit="4"/><path stroke-linecap="butt" transform="matrix(0, -0.852412, 0.819855, 0, 36.442638, 27.659745)" fill="none" stroke-linejoin="miter" d="M -0.000482104 0.498777 L 8.669765 0.498777 " stroke="#000000" stroke-width="1" stroke-opacity="1" stroke-miterlimit="4"/><g clip-path="url(#31f9de2c28)"><path fill="#000000" d="M 29.234375 31.5625 C 29.914062 31.5625 30.464844 32.113281 30.464844 32.792969 C 30.464844 33.472656 29.914062 34.023438 29.234375 34.023438 C 28.554688 34.023438 28.003906 33.472656 28.003906 32.792969 C 28.003906 32.113281 28.554688 31.5625 29.234375 31.5625 Z M 29.234375 31.5625 " fill-opacity="1" fill-rule="evenodd"/></g><g clip-path="url(#5fc04cfb49)"><path fill="#000000" d="M 29.234375 38.3125 C 29.914062 38.3125 30.464844 38.863281 30.464844 39.542969 C 30.464844 40.222656 29.914062 40.773438 29.234375 40.773438 C 28.554688 40.773438 28.003906 40.222656 28.003906 39.542969 C 28.003906 38.863281 28.554688 38.3125 29.234375 38.3125 Z M 29.234375 38.3125 " fill-opacity="1" fill-rule="evenodd"/></g><path stroke-linecap="butt" transform="matrix(0, -0.852412, 0.819855, 0, 28.914697, 39.631767)" fill="none" stroke-linejoin="miter" d="M -0.00122632 0.499505 L 8.66902 0.499505 " stroke="#000000" stroke-width="1" stroke-opacity="1" stroke-miterlimit="4"/><path stroke-linecap="butt" transform="matrix(-0.623738, 0.505331, -0.516098, -0.637028, 37.001945, 27.087092)" fill="none" stroke-linejoin="miter" d="M 0.00240099 0.500409 L 11.24309 0.501322 " stroke="#000000" stroke-width="1" stroke-opacity="1" stroke-miterlimit="4"/><path stroke-linecap="butt" transform="matrix(-0.62843, -0.499484, 0.510127, -0.64182, 28.812176, 33.238111)" fill="none" stroke-linejoin="miter" d="M 0.000217105 0.498634 L 11.245313 0.499317 " stroke="#000000" stroke-width="1" stroke-opacity="1" stroke-miterlimit="4"/><path stroke-linecap="butt" transform="matrix(-0.67679, 0.4317, -0.440898, -0.69121, 30.060374, 39.005888)" fill="none" stroke-linejoin="miter" d="M 0.00000064428 0.500184 L 11.244493 0.498414 " stroke="#000000" stroke-width="1" stroke-opacity="1" stroke-miterlimit="4"/><path stroke-linecap="butt" transform="matrix(0.671222, 0.440307, -0.449689, 0.685523, 29.14858, 38.314727)" fill="none" stroke-linejoin="miter" d="M -0.00278488 0.499982 L 11.246508 0.499956 " stroke="#000000" stroke-width="1" stroke-opacity="1" stroke-miterlimit="4"/><g fill="#000000" fill-opacity="1"><g transform="translate(55.623074, 25.941052)"><g><path d="M 5.160156 0.234375 C 4.363281 0.234375 3.578125 0.046875 2.804688 -0.328125 C 2.027344 -0.703125 1.390625 -1.34375 0.890625 -2.253906 L 2.675781 -3.425781 C 3.113281 -2.847656 3.527344 -2.429688 3.917969 -2.171875 C 4.308594 -1.910156 4.816406 -1.78125 5.441406 -1.78125 C 5.941406 -1.78125 6.332031 -1.910156 6.605469 -2.171875 C 6.878906 -2.429688 7.015625 -2.746094 7.015625 -3.121094 C 7.015625 -3.371094 6.949219 -3.589844 6.816406 -3.777344 C 6.683594 -3.964844 6.453125 -4.140625 6.121094 -4.304688 C 5.792969 -4.46875 5.324219 -4.628906 4.714844 -4.785156 C 3.589844 -5.082031 2.722656 -5.472656 2.113281 -5.957031 C 1.5 -6.445312 1.195312 -7.210938 1.195312 -8.257812 C 1.195312 -8.882812 1.351562 -9.453125 1.664062 -9.96875 C 1.976562 -10.488281 2.433594 -10.902344 3.027344 -11.214844 C 3.621094 -11.527344 4.324219 -11.683594 5.136719 -11.683594 C 6.105469 -11.683594 6.9375 -11.484375 7.625 -11.085938 C 8.3125 -10.6875 8.851562 -10.210938 9.242188 -9.664062 L 7.4375 -8.328125 C 7.21875 -8.609375 6.898438 -8.886719 6.476562 -9.160156 C 6.050781 -9.433594 5.519531 -9.570312 4.878906 -9.570312 C 4.488281 -9.570312 4.128906 -9.460938 3.800781 -9.242188 C 3.472656 -9.023438 3.308594 -8.71875 3.308594 -8.328125 C 3.308594 -7.9375 3.460938 -7.621094 3.765625 -7.378906 C 4.070312 -7.136719 4.628906 -6.921875 5.441406 -6.734375 C 6.820312 -6.40625 7.796875 -5.976562 8.375 -5.453125 C 8.953125 -4.929688 9.242188 -4.238281 9.242188 -3.378906 C 9.242188 -2.628906 9.050781 -1.980469 8.667969 -1.441406 C 8.285156 -0.902344 7.785156 -0.488281 7.167969 -0.199219 C 6.550781 0.0898438 5.878906 0.234375 5.160156 0.234375 Z M 5.160156 0.234375 "/></g></g></g><g fill="#000000" fill-opacity="1"><g transform="translate(65.754624, 25.941052)"><g><path d="M 5.722656 0.210938 C 4.722656 0.210938 3.929688 -0.0820312 3.34375 -0.667969 C 2.757812 -1.253906 2.464844 -2.167969 2.464844 -3.402344 L 2.464844 -11.449219 L 2.910156 -14.027344 L 4.808594 -14.027344 L 4.808594 -3.355469 C 4.808594 -2.917969 4.921875 -2.589844 5.148438 -2.371094 C 5.375 -2.152344 5.660156 -2.039062 6.003906 -2.039062 C 6.273438 -2.039062 6.507812 -2.054688 6.710938 -2.089844 C 6.914062 -2.121094 7.09375 -2.160156 7.25 -2.207031 L 7.25 -0.0234375 C 7.046875 0.0390625 6.824219 0.09375 6.582031 0.140625 C 6.339844 0.1875 6.050781 0.210938 5.722656 0.210938 Z M 0.703125 -9.289062 L 0.703125 -11.449219 L 7.25 -11.449219 L 7.25 -9.289062 Z M 0.703125 -9.289062 "/></g></g></g><g fill="#000000" fill-opacity="1"><g transform="translate(74.174128, 25.941052)"><g><path d="M 5.113281 0.234375 C 4.253906 0.234375 3.574219 0.0976562 3.074219 -0.175781 C 2.574219 -0.449219 2.207031 -0.816406 1.96875 -1.277344 C 1.734375 -1.738281 1.582031 -2.261719 1.511719 -2.839844 C 1.441406 -3.417969 1.40625 -4.011719 1.40625 -4.621094 L 1.40625 -11.449219 L 3.753906 -11.449219 L 3.753906 -4.128906 C 3.753906 -3.316406 3.9375 -2.769531 4.304688 -2.488281 C 4.671875 -2.207031 5.105469 -2.0625 5.605469 -2.0625 C 6.121094 -2.0625 6.636719 -2.167969 7.144531 -2.371094 C 7.652344 -2.574219 8.113281 -2.851562 8.527344 -3.203125 C 8.941406 -3.554688 9.25 -3.933594 9.453125 -4.339844 L 9.453125 -3.027344 L 9.078125 -3.027344 L 9.078125 -11.449219 L 11.425781 -11.449219 L 11.425781 0 L 9.640625 0 L 9.148438 -2.015625 L 9.734375 -2.089844 C 9.328125 -1.601562 8.875 -1.183594 8.375 -0.832031 C 7.875 -0.480469 7.351562 -0.214844 6.804688 -0.0351562 C 6.257812 0.144531 5.691406 0.234375 5.113281 0.234375 Z M 5.113281 0.234375 "/></g></g></g><g fill="#000000" fill-opacity="1"><g transform="translate(87.096543, 25.941052)"><g><path d="M 6.074219 0.234375 C 5.027344 0.234375 4.105469 -0.015625 3.308594 -0.515625 C 2.511719 -1.015625 1.890625 -1.714844 1.453125 -2.617188 C 1.015625 -3.515625 0.796875 -4.558594 0.796875 -5.746094 C 0.796875 -6.9375 1.015625 -7.976562 1.453125 -8.867188 C 1.890625 -9.757812 2.511719 -10.453125 3.308594 -10.945312 C 4.105469 -11.4375 5.027344 -11.683594 6.074219 -11.683594 C 7.109375 -11.683594 8.007812 -11.4375 8.773438 -10.945312 C 9.539062 -10.453125 10.136719 -9.757812 10.570312 -8.867188 C 11 -7.976562 11.214844 -6.9375 11.214844 -5.746094 C 11.214844 -4.558594 11 -3.515625 10.570312 -2.617188 C 10.136719 -1.714844 9.539062 -1.015625 8.773438 -0.515625 C 8.007812 -0.015625 7.109375 0.234375 6.074219 0.234375 Z M 6.429688 -1.78125 C 7.398438 -1.78125 8.175781 -2.144531 8.761719 -2.863281 C 9.347656 -3.582031 9.640625 -4.535156 9.640625 -5.722656 C 9.640625 -6.914062 9.347656 -7.867188 8.761719 -8.585938 C 8.175781 -9.304688 7.398438 -9.664062 6.429688 -9.664062 C 5.457031 -9.664062 4.675781 -9.304688 4.082031 -8.585938 C 3.488281 -7.867188 3.191406 -6.921875 3.191406 -5.746094 C 3.191406 -4.558594 3.488281 -3.601562 4.082031 -2.875 C 4.675781 -2.148438 5.457031 -1.78125 6.429688 -1.78125 Z M 10.085938 0 L 9.523438 -2.300781 L 9.757812 -2.300781 L 9.757812 -8.820312 L 9.523438 -8.820312 L 9.523438 -15.976562 L 11.871094 -15.976562 L 11.871094 0 Z M 10.085938 0 "/></g></g></g><g fill="#000000" fill-opacity="1"><g transform="translate(100.46455, 25.941052)"><g><path d="M 3.894531 0 L 1.546875 0 L 1.546875 -11.449219 L 3.894531 -11.449219 Z M 1.195312 -14.96875 C 1.195312 -15.421875 1.332031 -15.792969 1.605469 -16.082031 C 1.878906 -16.371094 2.253906 -16.515625 2.722656 -16.515625 C 3.175781 -16.515625 3.542969 -16.371094 3.824219 -16.082031 C 4.105469 -15.792969 4.246094 -15.421875 4.246094 -14.96875 C 4.246094 -14.53125 4.105469 -14.164062 3.824219 -13.875 C 3.542969 -13.585938 3.175781 -13.441406 2.722656 -13.441406 C 2.253906 -13.441406 1.878906 -13.585938 1.605469 -13.875 C 1.332031 -14.164062 1.195312 -14.53125 1.195312 -14.96875 Z M 1.195312 -14.96875 "/></g></g></g><g fill="#000000" fill-opacity="1"><g transform="translate(105.905582, 25.941052)"><g><path d="M 5.113281 0.234375 C 4.253906 0.234375 3.574219 0.0976562 3.074219 -0.175781 C 2.574219 -0.449219 2.207031 -0.816406 1.96875 -1.277344 C 1.734375 -1.738281 1.582031 -2.261719 1.511719 -2.839844 C 1.441406 -3.417969 1.40625 -4.011719 1.40625 -4.621094 L 1.40625 -11.449219 L 3.753906 -11.449219 L 3.753906 -4.128906 C 3.753906 -3.316406 3.9375 -2.769531 4.304688 -2.488281 C 4.671875 -2.207031 5.105469 -2.0625 5.605469 -2.0625 C 6.121094 -2.0625 6.636719 -2.167969 7.144531 -2.371094 C 7.652344 -2.574219 8.113281 -2.851562 8.527344 -3.203125 C 8.941406 -3.554688 9.25 -3.933594 9.453125 -4.339844 L 9.453125 -3.027344 L 9.078125 -3.027344 L 9.078125 -11.449219 L 11.425781 -11.449219 L 11.425781 0 L 9.640625 0 L 9.148438 -2.015625 L 9.734375 -2.089844 C 9.328125 -1.601562 8.875 -1.183594 8.375 -0.832031 C 7.875 -0.480469 7.351562 -0.214844 6.804688 -0.0351562 C 6.257812 0.144531 5.691406 0.234375 5.113281 0.234375 Z M 5.113281 0.234375 "/></g></g></g><g fill="#000000" fill-opacity="1"><g transform="translate(118.827997, 25.941052)"><g><path d="M 1.5 0 L 1.5 -11.449219 L 3.285156 -11.449219 L 3.777344 -9.429688 L 3.191406 -9.359375 C 3.613281 -9.859375 4.058594 -10.28125 4.527344 -10.628906 C 4.996094 -10.972656 5.496094 -11.234375 6.027344 -11.414062 C 6.5625 -11.59375 7.117188 -11.683594 7.695312 -11.683594 C 8.507812 -11.683594 9.148438 -11.546875 9.617188 -11.273438 C 10.085938 -11 10.433594 -10.632812 10.652344 -10.167969 C 10.871094 -9.707031 11.011719 -9.1875 11.074219 -8.609375 C 11.136719 -8.03125 11.167969 -7.4375 11.167969 -6.828125 L 11.167969 0 L 8.820312 0 L 8.820312 -7.320312 C 8.820312 -8.132812 8.636719 -8.679688 8.269531 -8.960938 C 7.902344 -9.242188 7.46875 -9.382812 6.96875 -9.382812 C 6.25 -9.382812 5.558594 -9.160156 4.902344 -8.714844 C 4.246094 -8.269531 3.769531 -7.734375 3.472656 -7.109375 L 3.472656 -8.421875 L 3.847656 -8.421875 L 3.847656 0 Z M 16.140625 0 L 16.140625 -7.320312 C 16.140625 -8.132812 15.957031 -8.679688 15.589844 -8.960938 C 15.222656 -9.242188 14.789062 -9.382812 14.285156 -9.382812 C 13.566406 -9.382812 12.878906 -9.160156 12.222656 -8.714844 C 11.566406 -8.269531 11.089844 -7.734375 10.792969 -7.109375 L 10.511719 -9.359375 C 10.933594 -9.859375 11.378906 -10.28125 11.847656 -10.628906 C 12.316406 -10.972656 12.816406 -11.234375 13.347656 -11.414062 C 13.878906 -11.59375 14.433594 -11.683594 15.015625 -11.683594 C 15.828125 -11.683594 16.46875 -11.546875 16.9375 -11.273438 C 17.40625 -11 17.75 -10.632812 17.96875 -10.167969 C 18.1875 -9.707031 18.328125 -9.1875 18.390625 -8.609375 C 18.453125 -8.03125 18.484375 -7.4375 18.484375 -6.828125 L 18.484375 0 Z M 16.140625 0 "/></g></g></g><g fill="#000000" fill-opacity="1"><g transform="translate(95.684548, 47.899501)"><g><path d="M 12.324219 -13.84375 L 12.324219 0 L 11.933594 0 L 11.933594 -6.882812 L 2.320312 -6.882812 L 2.320312 0 L 1.929688 0 L 1.929688 -13.84375 L 2.320312 -13.84375 L 2.320312 -7.273438 L 11.933594 -7.273438 L 11.933594 -13.84375 Z M 12.324219 -13.84375 "/></g></g></g><g fill="#000000" fill-opacity="1"><g transform="translate(109.939056, 47.899501)"><g><path d="M 7.390625 0.0976562 C 6.296875 0.0976562 5.386719 -0.101562 4.652344 -0.496094 C 3.917969 -0.894531 3.335938 -1.429688 2.90625 -2.105469 C 2.476562 -2.78125 2.171875 -3.535156 1.988281 -4.367188 C 1.808594 -5.199219 1.714844 -6.050781 1.714844 -6.921875 L 1.714844 -13.84375 L 2.105469 -13.84375 L 2.105469 -6.921875 C 2.105469 -6.089844 2.191406 -5.277344 2.359375 -4.484375 C 2.527344 -3.691406 2.8125 -2.980469 3.207031 -2.351562 C 3.605469 -1.71875 4.140625 -1.21875 4.816406 -0.847656 C 5.492188 -0.476562 6.34375 -0.292969 7.371094 -0.292969 C 8.410156 -0.292969 9.277344 -0.484375 9.964844 -0.867188 C 10.652344 -1.25 11.191406 -1.761719 11.582031 -2.398438 C 11.972656 -3.035156 12.25 -3.746094 12.410156 -4.535156 C 12.574219 -5.320312 12.65625 -6.117188 12.65625 -6.921875 L 12.65625 -13.84375 L 13.046875 -13.84375 L 13.046875 -6.921875 C 13.046875 -6.011719 12.949219 -5.136719 12.753906 -4.289062 C 12.558594 -3.445312 12.242188 -2.695312 11.808594 -2.039062 C 11.371094 -1.382812 10.792969 -0.859375 10.070312 -0.476562 C 9.351562 -0.09375 8.457031 0.0976562 7.390625 0.0976562 Z M 7.390625 0.0976562 "/></g></g></g><g fill="#000000" fill-opacity="1"><g transform="translate(124.68107, 47.899501)"><g><path d="M 11.796875 -3.589844 C 11.796875 -2.949219 11.640625 -2.359375 11.328125 -1.8125 C 11.015625 -1.265625 10.601562 -0.828125 10.082031 -0.496094 C 9.5625 -0.164062 8.984375 0 8.347656 0 L 1.929688 0 L 1.929688 -13.84375 L 8.054688 -13.84375 C 8.703125 -13.84375 9.265625 -13.671875 9.742188 -13.328125 C 10.214844 -12.984375 10.578125 -12.542969 10.832031 -12.003906 C 11.085938 -11.460938 11.210938 -10.902344 11.210938 -10.316406 C 11.210938 -9.613281 11.035156 -8.96875 10.675781 -8.386719 C 10.320312 -7.800781 9.835938 -7.371094 9.222656 -7.097656 C 10.015625 -6.863281 10.644531 -6.417969 11.105469 -5.761719 C 11.566406 -5.105469 11.796875 -4.382812 11.796875 -3.589844 Z M 11.40625 -3.589844 C 11.40625 -4.148438 11.28125 -4.667969 11.027344 -5.148438 C 10.773438 -5.628906 10.425781 -6.023438 9.984375 -6.328125 C 9.542969 -6.632812 9.042969 -6.785156 8.484375 -6.785156 L 2.320312 -6.785156 L 2.320312 -0.390625 L 8.347656 -0.390625 C 8.917969 -0.390625 9.433594 -0.546875 9.894531 -0.859375 C 10.359375 -1.171875 10.726562 -1.570312 10.996094 -2.058594 C 11.269531 -2.542969 11.40625 -3.054688 11.40625 -3.589844 Z M 2.320312 -13.453125 L 2.320312 -7.175781 L 7.9375 -7.175781 C 8.507812 -7.175781 9.007812 -7.332031 9.4375 -7.644531 C 9.867188 -7.957031 10.203125 -8.351562 10.453125 -8.832031 C 10.699219 -9.316406 10.824219 -9.808594 10.824219 -10.316406 C 10.824219 -10.875 10.707031 -11.390625 10.472656 -11.867188 C 10.238281 -12.339844 9.914062 -12.722656 9.496094 -13.015625 C 9.082031 -13.308594 8.597656 -13.453125 8.054688 -13.453125 Z M 2.320312 -13.453125 "/></g></g></g></svg>