<svg xmlns="http://www.w3.org/2000/svg" xmlns:xlink="http://www.w3.org/1999/xlink" width="500" zoomAndPan="magnify" viewBox="0 0 375 374.999991" height="500" preserveAspectRatio="xMidYMid meet" version="1.0"><defs><clipPath id="17bb5ca259"><path d="M 27 15.148438 L 344 15.148438 L 344 359 L 27 359 Z M 27 15.148438 " clip-rule="nonzero"/></clipPath></defs><g clip-path="url(#17bb5ca259)"><path fill="#000000" d="M 36.691406 340.570312 L 94.042969 283.847656 C 96.472656 281.445312 99.910156 280.351562 103.28125 280.914062 C 127.816406 284.992188 151.316406 288.875 174.488281 288.875 C 193.417969 288.875 211.832031 286.269531 229.882812 279.117188 C 270.648438 262.964844 309.976562 223.667969 319.753906 179.480469 C 329.5 135.445312 310.34375 85.160156 269.378906 59.117188 C 246.003906 44.253906 214.90625 36.878906 183.96875 36.878906 C 160.535156 36.878906 137.832031 41.117188 119.394531 48.980469 C 77.1875 66.984375 55.304688 105.003906 50.097656 141.035156 C 44.894531 177.035156 56.347656 210.890625 68.996094 247.625 C 69.558594 249.257812 69.714844 251 69.457031 252.703125 L 54.714844 349.753906 L 36.691406 340.570312 M 51.667969 355.734375 C 48.402344 358.964844 43.4375 359.738281 39.34375 357.652344 C 35.253906 355.566406 32.957031 351.09375 33.648438 346.550781 L 48.390625 249.496094 L 48.851562 254.574219 C 36.496094 218.691406 22.945312 179.925781 29.007812 137.984375 C 35.0625 96.074219 60.710938 50.832031 111.039062 29.367188 C 132.542969 20.195312 158.164062 15.558594 183.96875 15.558594 C 217.875 15.558594 253.207031 23.570312 280.804688 41.117188 C 329.523438 72.09375 352.195312 131.511719 340.558594 184.089844 C 328.960938 236.511719 283.703125 280.726562 237.726562 298.941406 C 216.605469 307.308594 195.410156 310.199219 174.488281 310.199219 C 149.257812 310.199219 124.003906 305.976562 99.785156 301.949219 L 109.023438 299.011719 Z M 51.667969 355.734375 " fill-opacity="1" fill-rule="nonzero"/></g><path fill="#000000" d="M 173.875 125.667969 C 173.609375 125.648438 178.394531 125.929688 180.910156 127.089844 C 182.058594 127.621094 183.273438 128.300781 184.363281 128.910156 C 185.585938 129.597656 186.710938 130.222656 187.789062 130.71875 C 189.191406 131.363281 190.132812 131.605469 190.722656 131.605469 C 191.058594 131.605469 191.164062 131.535156 191.277344 131.429688 C 197.34375 125.890625 195.804688 110.785156 188.960938 103.289062 L 188.964844 103.289062 C 188.933594 103.253906 188.882812 103.199219 188.851562 103.164062 C 187.421875 101.632812 185.113281 100.855469 181.777344 100.855469 C 178.023438 100.855469 173.792969 101.84375 169.953125 102.867188 C 157.960938 106.054688 145.710938 110.632812 140.417969 119.808594 C 135.835938 127.753906 138.902344 138.871094 142.230469 150.070312 L 142.472656 150.882812 C 146.683594 165.070312 152.226562 178.917969 158.46875 192.445312 C 159.15625 193.933594 159.832031 195.421875 160.511719 196.917969 C 161.195312 198.417969 161.882812 199.925781 162.570312 201.417969 C 167.632812 212.390625 172.945312 222.726562 181.011719 230.449219 C 183.648438 232.972656 187.929688 234.4375 192.253906 234.4375 C 193.46875 234.4375 194.648438 234.320312 195.75 234.09375 C 203.199219 232.558594 210.085938 228.175781 217.046875 223.367188 C 218.382812 222.441406 219.804688 221.59375 221.113281 220.8125 C 222.476562 220 223.722656 219.253906 224.878906 218.453125 C 227.015625 216.976562 228.476562 215.554688 229.277344 213.878906 C 230.65625 210.996094 229.007812 206.503906 226.238281 201.492188 C 223.488281 196.519531 218.453125 191.753906 215.402344 191.753906 C 215 191.753906 214.648438 191.839844 214.300781 192.035156 C 212.015625 193.300781 210.355469 195.605469 208.140625 198.84375 C 206.144531 201.753906 203.605469 205.578125 199.632812 207.816406 L 199.859375 207.675781 L 199.632812 207.816406 C 199.082031 208.125 198.511719 208.347656 197.9375 208.492188 C 197.300781 208.652344 196.675781 208.722656 196.070312 208.722656 C 192.480469 208.722656 188.964844 206.367188 187.203125 203.925781 C 176.617188 189.269531 171.613281 171.3125 166.9375 154.664062 C 166.625 153.546875 166.328125 152.488281 166.015625 151.382812 L 165.964844 151.207031 L 165.914062 151.023438 C 164.640625 146.519531 162.84375 140.371094 164.441406 134.53125 L 164.4375 134.535156 C 164.480469 134.386719 164.523438 134.246094 164.570312 134.109375 C 165.960938 130.066406 171.980469 126.023438 171.570312 126.3125 L 173.875 125.667969 M 173.375 132.804688 L 175.679688 132.160156 C 175.269531 132.449219 171.789062 135.09375 171.328125 136.4375 C 171.328125 136.4375 171.332031 136.429688 171.332031 136.421875 C 170.355469 140 171.398438 144.144531 172.792969 149.078125 L 172.84375 149.257812 L 172.890625 149.4375 C 173.207031 150.554688 173.503906 151.605469 173.820312 152.730469 C 178.5625 169.621094 183.285156 186.289062 192.996094 199.738281 C 193.734375 200.765625 195.273438 201.570312 196.070312 201.570312 C 196.148438 201.570312 196.179688 201.558594 196.179688 201.558594 C 196.179688 201.5625 196.15625 201.566406 196.125 201.585938 L 195.894531 201.726562 L 195.898438 201.726562 L 196.125 201.585938 C 198.390625 200.308594 200.046875 198.007812 202.242188 194.796875 C 204.25 191.867188 206.8125 188.007812 210.839844 185.777344 C 212.304688 184.964844 213.855469 184.601562 215.402344 184.601562 C 222.9375 184.601562 229.789062 193.140625 232.492188 198.027344 C 234.871094 202.335938 238.9375 210.242188 235.722656 216.964844 C 234.132812 220.292969 231.484375 222.582031 228.941406 224.339844 C 227.554688 225.296875 226.101562 226.164062 224.773438 226.957031 C 223.425781 227.761719 222.214844 228.484375 221.109375 229.25 C 214.210938 234.019531 206.234375 239.234375 197.191406 241.097656 C 195.585938 241.429688 193.921875 241.589844 192.253906 241.589844 C 186.570312 241.589844 180.347656 239.714844 176.070312 235.617188 C 166.929688 226.867188 161.148438 215.390625 156.082031 204.417969 C 155.382812 202.898438 154.691406 201.382812 154.007812 199.878906 C 153.324219 198.378906 152.660156 196.914062 151.980469 195.441406 C 145.640625 181.699219 139.953125 167.523438 135.621094 152.917969 L 135.378906 152.105469 L 135.378906 152.109375 C 132.355469 141.9375 127.792969 127.386719 134.226562 116.234375 C 141.1875 104.171875 156.421875 99.066406 168.117188 95.953125 C 171.949219 94.933594 176.992188 93.703125 181.777344 93.703125 C 186.015625 93.703125 190.703125 94.667969 194.074219 98.285156 C 194.125 98.335938 194.191406 98.410156 194.238281 98.464844 L 194.242188 98.464844 C 202.378906 107.382812 206.375 127.320312 196.097656 136.710938 C 194.480469 138.1875 192.574219 138.757812 190.722656 138.757812 C 188.558594 138.757812 186.476562 137.988281 184.804688 137.21875 C 183.425781 136.582031 182.050781 135.8125 180.875 135.152344 C 179.71875 134.507812 178.765625 133.976562 177.921875 133.585938 C 176.867188 133.101562 173.640625 132.820312 173.375 132.804688 Z M 173.375 132.804688 " fill-opacity="1" fill-rule="nonzero"/><path fill="#000000" d="M 181.777344 100.429688 C 177.960938 100.429688 173.683594 101.429688 169.84375 102.453125 C 157.867188 105.636719 145.441406 110.246094 140.046875 119.597656 C 135.351562 127.734375 138.511719 139.058594 141.820312 150.191406 L 142.0625 151.003906 L 142.0625 151.011719 C 146.28125 165.21875 151.832031 179.085938 158.082031 192.625 C 158.765625 194.109375 159.421875 195.554688 160.105469 197.050781 C 160.113281 197.0625 160.117188 197.078125 160.125 197.09375 C 160.820312 198.621094 161.480469 200.078125 162.183594 201.597656 C 167.246094 212.570312 172.585938 222.976562 180.714844 230.757812 C 180.726562 230.769531 180.742188 230.78125 180.757812 230.792969 L 180.753906 230.792969 C 183.492188 233.390625 187.867188 234.867188 192.253906 234.867188 C 193.5 234.867188 194.703125 234.746094 195.835938 234.511719 C 203.382812 232.957031 210.332031 228.527344 217.289062 223.71875 C 218.605469 222.808594 220.003906 221.972656 221.3125 221.195312 L 221.332031 221.179688 C 222.691406 220.367188 223.953125 219.613281 225.121094 218.808594 C 227.28125 217.3125 228.8125 215.839844 229.664062 214.0625 C 231.144531 210.960938 229.371094 206.285156 226.640625 201.335938 L 226.636719 201.335938 C 226.628906 201.320312 226.621094 201.300781 226.609375 201.285156 C 223.863281 196.316406 218.71875 191.328125 215.402344 191.328125 C 214.933594 191.328125 214.507812 191.429688 214.09375 191.660156 C 211.703125 192.984375 209.988281 195.386719 207.785156 198.601562 L 207.605469 198.863281 L 207.414062 199.140625 C 205.472656 201.976562 203.054688 205.394531 199.425781 207.445312 L 199.421875 207.445312 C 198.90625 207.734375 198.371094 207.941406 197.832031 208.078125 L 197.828125 208.078125 C 197.234375 208.230469 196.640625 208.292969 196.070312 208.292969 C 192.648438 208.292969 189.25 206.03125 187.546875 203.675781 C 177.082031 189.179688 172.089844 171.425781 167.433594 154.851562 L 167.351562 154.546875 C 167.054688 153.496094 166.730469 152.339844 166.433594 151.292969 L 166.429688 151.292969 L 166.425781 151.265625 L 166.375 151.089844 L 166.324219 150.910156 L 166.324219 150.90625 L 166.253906 150.660156 L 166.183594 150.402344 C 164.921875 145.9375 163.351562 140.136719 164.851562 134.648438 C 164.890625 134.507812 164.929688 134.378906 164.972656 134.25 L 164.984375 134.214844 L 164.988281 134.214844 C 166.207031 130.734375 171.050781 127.191406 171.75 126.707031 L 171.746094 126.707031 L 173.917969 126.101562 L 173.921875 126.101562 C 174.558594 126.144531 178.554688 126.476562 180.730469 127.476562 C 181.847656 127.992188 183.03125 128.65625 184.113281 129.261719 C 184.140625 129.277344 184.125 129.269531 184.152344 129.285156 L 184.15625 129.285156 C 185.375 129.96875 186.519531 130.605469 187.613281 131.109375 C 189.027344 131.761719 190.039062 132.03125 190.722656 132.03125 C 191.152344 132.03125 191.367188 131.929688 191.566406 131.746094 L 191.582031 131.734375 C 197.863281 125.964844 196.203125 110.640625 189.316406 103.042969 L 189.3125 103.042969 C 189.304688 103.027344 189.292969 103.011719 189.277344 103 C 189.246094 102.960938 189.199219 102.910156 189.164062 102.875 C 187.617188 101.21875 185.167969 100.429688 181.777344 100.429688 Z M 181.777344 100.429688 " fill-opacity="1" fill-rule="nonzero"/></svg>